{"title":"[ShepardTDS] Date a Live Dual Audio [720p 8-bit x265 HEVC] 1-12+","uid":12680732,"size":2555910929,"categoryP":"video","categoryS":"tv_shows","magnet":"?xt=urn:btih:b0ef99c3524465e94e65e332b74fe79701bed648&amp;dn=%5BShepardTDS%5D+Date+a+Live+Dual+Audio+%5B720p+8-bit+x265+HEVC%5D+1-12%2B&amp;tr=udp%3A%2F%2Ftracker.leechers-paradise.org%3A6969&amp;tr=udp%3A%2F%2Fzer0day.ch%3A1337&amp;tr=udp%3A%2F%2Fopen.demonii.com%3A1337&amp;tr=udp%3A%2F%2Ftracker.coppersurfer.tk%3A6969&amp;tr=udp%3A%2F%2Fexodus.desync.com%3A6969","seeders":2,"leechers":0,"uploader":"ShepardTDS","files":23,"time":1446554641,"description":"Constant Quality encoding.\r\nVariable Bit rates\r\nED and OP included\r\nBlu-Ray Source\r\n\r\n\r\nGeneral\r\n\r\nFormat : Matroska\r\nFile size : 148 MiB-218 MiB\r\nDuration : 23mn 43s\r\nOverall bit rate : 870 Kbps-1,098 Kbps\r\nEncoded date : UTC 2015-10-29 15:07:36\r\nWriting application : mkvmerge v7.7.0 ('Six Voices') 32bit built on Feb 28 2015 23:23:00\r\nWriting library : libebml v1.3.1 + libmatroska v1.4.2\r\n\r\nVideo\r\nID : 1\r\nFormat : V_MPEGH/ISO/HEVC\r\nCodec ID : V_MPEGH/ISO/HEVC\r\nDuration : 23mn 43s\r\nBit rate : 469 Kbps-692 Kbps\r\nWidth : 1 280 pixels\r\nHeight : 720 pixels\r\nDisplay aspect ratio : 16:9\r\nFrame rate : 23.976 fps\r\nBits/(Pixel*Frame) : 0.021\r\nStream size : 79.6 MiB (54%)\r\n\r\nAudio #1\r\nID : 2\r\nFormat : AC-3\r\nFormat/Info : Audio Coding 3\r\nMode extension : CM (complete main)\r\nCodec ID : A_AC3\r\nDuration : 23mn 43s\r\nBit rate mode : Constant\r\nBit rate : 192 Kbps\r\nChannel(s) : 6 channels\r\nChannel positions : Front: L C R, Side: L R, LFE\r\nSampling rate : 48.0 KHz\r\nBit depth : 16 bits\r\nCompression mode : Lossy\r\nStream size : 32.6 MiB (22%)\r\nLanguage : English\r\n\r\nAudio #2\r\nID : 3\r\nFormat : AC-3\r\nFormat/Info : Audio Coding 3\r\nMode extension : CM (complete main)\r\nCodec ID : A_AC3\r\nDuration : 23mn 43s\r\nBit rate mode : Constant\r\nBit rate : 192 Kbps\r\nChannel(s) : 2 channels\r\nChannel positions : Front: L R\r\nSampling rate : 48.0 KHz\r\nBit depth : 16 bits\r\nCompression mode : Lossy\r\nStream size : 32.6 MiB (22%)\r\nLanguage : Japanese\r\n\r\nText #1\r\nID : 4\r\nFormat : ASS\r\nCodec ID : S_TEXT/ASS\r\nCodec ID/Info : Advanced Sub Station Alpha\r\nCompression mode : Lossless\r\nTitle : English Signs/Songs\r\nLanguage : English\r\n\r\nText #2\r\nID : 5\r\nFormat : ASS\r\nCodec ID : S_TEXT/ASS\r\nCodec ID/Info : Advanced Sub Station Alpha\r\nCompression mode : Lossless\r\nTitle : English Subtitles\r\nLanguage : English","torrent":{"xt":"urn:btih:b0ef99c3524465e94e65e332b74fe79701bed648","amp;dn":"%5BShepardTDS%5D+Date+a+Live+Dual+Audio+%5B720p+8-bit+x265+HEVC%5D+1-12%2B","amp;tr":["udp%3A%2F%2Ftracker.leechers-paradise.org%3A6969","udp%3A%2F%2Fzer0day.ch%3A1337","udp%3A%2F%2Fopen.demonii.com%3A1337","udp%3A%2F%2Ftracker.coppersurfer.tk%3A6969","udp%3A%2F%2Fexodus.desync.com%3A6969"],"infoHash":"b0ef99c3524465e94e65e332b74fe79701bed648","infoHashBuffer":{"type":"Buffer","data":[176,239,153,195,82,68,101,233,78,101,227,50,183,79,231,151,1,190,214,72]},"announce":[],"urlList":[]}}